<svg t="1606297028566" class="icon" viewBox="0 0 1024 1024" version="1.1" xmlns="http://www.w3.org/2000/svg" p-id="3906" width="128" height="128"><path d="M997.052632 862.315789 842.105263 862.315789 673.684211 862.315789C673.684211 951.619368 601.303579 1024 512 1024 422.696421 1024 350.315789 951.619368 350.315789 862.315789L181.894737 862.315789 26.947368 862.315789C12.072421 862.315789 0 850.243368 0 835.368421 0 820.493474 12.072421 808.421053 26.947368 808.421053L134.736842 808.421053 134.736842 485.052632C134.736842 267.695158 275.590737 88.414316 458.590316 58.718316 458.455579 57.101474 458.105263 55.538526 458.105263 53.894737 458.105263 24.117895 482.223158 0 512 0 541.776842 0 565.894737 24.117895 565.894737 53.894737 565.894737 55.538526 565.544421 57.101474 565.409684 58.718316 748.409263 88.414316 889.263158 267.695158 889.263158 485.052632L889.263158 808.421053 997.052632 808.421053C1011.927579 808.421053 1024 820.493474 1024 835.368421 1024 850.243368 1011.927579 862.315789 997.052632 862.315789ZM512 970.105263C571.526737 970.105263 619.789474 921.842526 619.789474 862.315789L404.210526 862.315789C404.210526 921.842526 452.473263 970.105263 512 970.105263ZM835.368421 485.052632C835.368421 276.695579 690.580211 107.789474 512 107.789474 333.419789 107.789474 188.631579 276.695579 188.631579 485.052632L188.631579 808.421053 835.368421 808.421053 835.368421 485.052632Z" p-id="3907"></path></svg>
